<svg width="479" height="118" viewBox="0 0 479 118" fill="none" xmlns="http://www.w3.org/2000/svg">
<path d="M217.241 30.3646H234.118C238.209 30.3646 242.092 30.824 245.767 31.7318C249.443 32.6506 252.658 34.1273 255.393 36.1727C258.138 38.2181 260.304 40.876 261.923 44.1465C263.531 47.417 264.34 51.3875 264.34 56.0471C264.34 60.1817 263.564 63.8241 261.999 66.9743C260.435 70.1244 258.335 72.7714 255.688 74.9043C253.041 77.0482 249.989 78.6671 246.522 79.7718C243.055 80.8765 239.423 81.4344 235.628 81.4344H217.23V30.3646H217.241ZM228.496 71.0432H234.337C236.929 71.0432 239.347 70.7807 241.589 70.2448C243.82 69.7197 245.756 68.8337 247.397 67.6087C249.027 66.3836 250.318 64.7757 251.258 62.774C252.199 60.7833 252.669 58.3332 252.669 55.4565C252.669 52.9517 252.199 50.7859 251.258 48.9264C250.318 47.0779 249.06 45.5466 247.474 44.3434C245.888 43.1402 244.017 42.2433 241.884 41.6417C239.74 41.0401 237.498 40.7448 235.136 40.7448H228.496V71.0432V71.0432Z" fill="black"/>
<path d="M299.539 75.3747C297.811 77.5841 295.623 79.2905 292.976 80.4937C290.329 81.6968 287.594 82.2984 284.751 82.2984C281.907 82.2984 279.522 81.8609 277.138 80.9968C274.753 80.1327 272.686 78.8967 270.936 77.2779C269.175 75.67 267.797 73.7339 266.79 71.4698C265.784 69.2056 265.281 66.6898 265.281 63.9006C265.281 61.1114 265.784 58.5847 266.79 56.3315C267.797 54.0673 269.186 52.1422 270.936 50.5234C272.686 48.9155 274.764 47.6795 277.138 46.8044C279.511 45.9294 282.049 45.5028 284.751 45.5028C287.255 45.5028 289.52 45.9403 291.565 46.8044C293.61 47.6685 295.339 48.9045 296.761 50.5234C298.182 52.1313 299.276 54.0673 300.042 56.3315C300.808 58.5957 301.19 61.1223 301.19 63.9006V67.2914H276.088C276.525 69.3587 277.455 71.0104 278.899 72.2354C280.342 73.4605 282.125 74.073 284.236 74.073C286.019 74.073 287.518 73.6793 288.743 72.8808C289.968 72.0823 291.04 71.065 291.948 69.8181L299.517 75.3747H299.539ZM290.373 59.941C290.416 58.1144 289.815 56.5502 288.568 55.2486C287.321 53.947 285.702 53.3016 283.733 53.3016C282.53 53.3016 281.469 53.4985 280.561 53.8813C279.642 54.2642 278.866 54.7564 278.22 55.358C277.575 55.9596 277.072 56.6596 276.711 57.4472C276.35 58.2456 276.142 59.066 276.098 59.9301H290.384L290.373 59.941Z" fill="black"/>
<path d="M339.572 75.3747C337.844 77.5841 335.657 79.2905 333.01 80.4937C330.363 81.6968 327.628 82.2984 324.784 82.2984C321.94 82.2984 319.556 81.8609 317.171 80.9968C314.787 80.1327 312.72 78.8967 310.969 77.2779C309.208 75.67 307.83 73.7339 306.824 71.4698C305.818 69.2056 305.314 66.6898 305.314 63.9006C305.314 61.1114 305.818 58.5847 306.824 56.3315C307.83 54.0673 309.219 52.1422 310.969 50.5234C312.72 48.9155 314.798 47.6795 317.171 46.8044C319.545 45.9294 322.082 45.5028 324.784 45.5028C327.289 45.5028 329.553 45.9403 331.599 46.8044C333.644 47.6685 335.372 48.9045 336.794 50.5234C338.216 52.1313 339.31 54.0673 340.076 56.3315C340.841 58.5957 341.224 61.1223 341.224 63.9006V67.2914H316.121C316.559 69.3587 317.488 71.0104 318.932 72.2354C320.376 73.4605 322.159 74.073 324.27 74.073C326.053 74.073 327.552 73.6793 328.777 72.8808C330.002 72.0823 331.074 71.065 331.981 69.8181L339.551 75.3747H339.572ZM330.406 59.941C330.45 58.1144 329.849 56.5502 328.602 55.2486C327.355 53.947 325.736 53.3016 323.767 53.3016C322.564 53.3016 321.503 53.4985 320.595 53.8813C319.676 54.2642 318.9 54.7564 318.254 55.358C317.609 55.9596 317.106 56.6596 316.745 57.4472C316.384 58.2456 316.176 59.066 316.132 59.9301H330.417L330.406 59.941Z" fill="black"/>
<path d="M347.798 30.3646H366.764C369.411 30.3646 371.905 30.6052 374.268 31.0865C376.62 31.5678 378.676 32.3991 380.437 33.5694C382.187 34.7507 383.587 36.3368 384.626 38.3275C385.665 40.3182 386.179 42.834 386.179 45.8638C386.179 48.8936 385.698 51.3438 384.736 53.3673C383.773 55.3909 382.45 56.9988 380.765 58.2019C379.081 59.4051 377.09 60.2583 374.782 60.7614C372.474 61.2646 369.969 61.5162 367.279 61.5162H359.053V81.4235H347.798V30.3536V30.3646ZM359.053 52.0001H366.557C367.563 52.0001 368.536 51.9016 369.477 51.7157C370.418 51.5297 371.26 51.2016 372.004 50.7422C372.748 50.2828 373.349 49.6593 373.809 48.8718C374.268 48.0733 374.498 47.0779 374.498 45.8748C374.498 44.5731 374.191 43.534 373.59 42.7355C372.988 41.9371 372.223 41.3245 371.282 40.8979C370.341 40.4604 369.302 40.187 368.143 40.0666C366.994 39.9463 365.878 39.8807 364.828 39.8807H359.053V52.0001V52.0001Z" fill="black"/>
<path d="M390.642 26.9082H401.459V81.4344H390.642V26.9082V26.9082Z" fill="black"/>
<path d="M429.877 77.0374H429.734C428.531 78.9078 426.934 80.2641 424.943 81.0735C422.942 81.8939 420.842 82.2986 418.632 82.2986C416.992 82.2986 415.427 82.0689 413.907 81.6095C412.398 81.1501 411.063 80.4719 409.904 79.5531C408.744 78.6453 407.836 77.5077 407.158 76.1624C406.48 74.817 406.152 73.2528 406.152 71.4699C406.152 69.4464 406.524 67.74 407.268 66.3509C408.011 64.9618 409.018 63.8023 410.297 62.8835C411.566 61.9757 413.021 61.2647 414.662 60.7506C416.291 60.2475 417.987 59.8756 419.748 59.6349C421.498 59.3943 423.259 59.2521 425.009 59.1974C426.759 59.1537 428.389 59.1208 429.877 59.1208C429.877 57.1957 429.187 55.6753 427.82 54.5378C426.453 53.4112 424.823 52.8424 422.953 52.8424C421.082 52.8424 419.551 53.2143 418.085 53.9581C416.62 54.7019 415.307 55.7301 414.159 57.0207L408.383 51.1032C410.407 49.2328 412.758 47.8218 415.449 46.8811C418.14 45.9405 420.929 45.4702 423.817 45.4702C426.989 45.4702 429.603 45.8639 431.648 46.6624C433.694 47.4609 435.324 48.6203 436.549 50.1626C437.774 51.7048 438.627 53.5862 439.108 55.8285C439.59 58.0599 439.83 60.6522 439.83 63.5836V81.4017H429.877V77.0046V77.0374ZM427.208 66.0775C426.387 66.0775 425.37 66.1102 424.145 66.1868C422.92 66.2634 421.739 66.4603 420.612 66.7994C419.485 67.1385 418.523 67.6416 417.724 68.3088C416.926 68.987 416.532 69.9167 416.532 71.1199C416.532 72.4215 417.079 73.3841 418.195 74.0076C419.299 74.631 420.459 74.9482 421.662 74.9482C422.723 74.9482 423.74 74.806 424.725 74.5107C425.709 74.2263 426.584 73.8107 427.361 73.2856C428.126 72.7606 428.739 72.0824 429.198 71.2621C429.658 70.4417 429.887 69.4792 429.887 68.3744V66.0665H427.219L427.208 66.0775Z" fill="black"/>
<path d="M445.245 46.3778H455.636V51.1359H455.778C456.117 50.4577 456.598 49.7905 457.222 49.1124C457.845 48.4342 458.589 47.8435 459.453 47.3076C460.317 46.7826 461.302 46.345 462.406 46.0059C463.511 45.6669 464.714 45.5028 466.016 45.5028C468.762 45.5028 470.971 45.9294 472.655 46.7607C474.34 47.6029 475.652 48.7733 476.582 50.2608C477.523 51.7484 478.157 53.5094 478.496 55.522C478.835 57.5456 479 59.7332 479 62.0849V81.4125H468.182V64.2506C468.182 63.2443 468.149 62.1943 468.072 61.1114C467.996 60.0285 467.788 59.0332 467.427 58.1144C467.066 57.2065 466.508 56.4518 465.764 55.883C465.021 55.3033 463.949 55.0189 462.56 55.0189C461.17 55.0189 460.033 55.2705 459.169 55.7736C458.305 56.2768 457.638 56.955 457.189 57.7972C456.73 58.6394 456.434 59.591 456.292 60.6411C456.15 61.7021 456.073 62.8068 456.073 63.9553V81.4125H445.256V46.356L445.245 46.3778Z" fill="black"/>
<path d="M272.905 96.7697V100.467H276.033V101.44H272.905V108.069C272.905 109.141 272.993 109.841 273.168 110.169C273.343 110.508 273.813 110.672 274.568 110.672C275.147 110.672 275.825 110.486 276.602 110.125V111.263C275.815 111.645 275.049 111.831 274.294 111.831C273.539 111.831 272.949 111.624 272.446 111.197C271.942 110.77 271.702 110.191 271.702 109.447V101.418H268.694V100.445H271.702V97.7869L272.511 96.7478H272.883L272.905 96.7697Z" fill="black"/>
<path d="M287.726 105.641H278.932C278.91 105.838 278.899 106.024 278.899 106.22C278.899 107.467 279.347 108.517 280.233 109.382C281.119 110.246 282.169 110.683 283.383 110.683C284.795 110.683 286.184 110.125 287.529 109.021V110.366C286.249 111.35 284.816 111.843 283.241 111.843C281.666 111.843 280.299 111.285 279.249 110.169C278.199 109.053 277.674 107.631 277.674 105.914C277.674 104.284 278.155 102.928 279.129 101.856C280.102 100.784 281.316 100.248 282.793 100.248C284.171 100.248 285.341 100.729 286.293 101.703C287.245 102.666 287.726 103.978 287.726 105.641V105.641ZM279.096 104.678H286.326C285.91 102.501 284.729 101.419 282.793 101.419C281.874 101.419 281.087 101.703 280.419 102.272C279.752 102.841 279.315 103.639 279.096 104.678V104.678Z" fill="black"/>
<path d="M297.986 100.795V102.118C296.914 101.648 295.951 101.418 295.087 101.418C293.84 101.418 292.834 101.856 292.046 102.72C291.27 103.584 290.876 104.711 290.876 106.089C290.876 107.467 291.27 108.616 292.046 109.447C292.823 110.278 293.873 110.694 295.186 110.694C296.137 110.694 297.144 110.475 298.194 110.049V111.285C297.078 111.667 296.039 111.853 295.087 111.853C293.457 111.853 292.134 111.339 291.128 110.3C290.121 109.261 289.618 107.905 289.618 106.231C289.618 104.558 290.121 103.048 291.139 101.933C292.156 100.817 293.446 100.27 295.022 100.27C295.886 100.27 296.87 100.456 297.986 100.817V100.795Z" fill="black"/>
<path d="M301.661 94.6806V102.403H301.705C302.635 100.959 303.86 100.248 305.38 100.248C306.638 100.248 307.644 100.653 308.399 101.462C309.154 102.272 309.526 103.376 309.526 104.798V111.624H308.333V105.269C308.333 102.698 307.327 101.408 305.304 101.408C303.86 101.408 302.646 102.206 301.65 103.792V111.613H300.458V94.6697H301.65L301.661 94.6806Z" fill="black"/>
<path d="M320.759 100.467V101.101C321.886 100.533 323.001 100.248 324.117 100.248C325.703 100.248 327.016 100.795 328.055 101.889C329.094 102.983 329.619 104.35 329.619 106.013C329.619 107.675 329.083 109.021 328.011 110.158C326.939 111.285 325.627 111.854 324.073 111.854C323.001 111.854 321.897 111.58 320.759 111.022V117.355H319.567V100.489H320.759V100.467ZM320.759 102.239V109.841C321.765 110.399 322.794 110.683 323.844 110.683C325.178 110.683 326.261 110.268 327.081 109.425C327.902 108.583 328.317 107.478 328.317 106.111C328.317 104.744 327.88 103.628 327.005 102.742C326.13 101.856 325.025 101.419 323.691 101.419C322.739 101.419 321.755 101.692 320.759 102.239V102.239Z" fill="black"/>
<path d="M333.6 94.6805V111.624H332.397V94.6805H333.6Z" fill="black"/>
<path d="M345.785 109.688V110.683C344.757 111.46 344.002 111.842 343.532 111.842C343.259 111.842 343.073 111.755 342.963 111.569C342.854 111.383 342.777 111.022 342.734 110.464C341.563 111.383 340.393 111.842 339.244 111.842C338.402 111.842 337.691 111.569 337.111 111.022C336.532 110.475 336.236 109.808 336.236 109.02C336.236 107.806 336.794 106.855 337.921 106.155C339.047 105.455 340.644 105.05 342.734 104.951V103.53C342.734 102.009 341.913 101.254 340.262 101.254C339.211 101.254 338.074 101.725 336.849 102.676V101.451C338.107 100.664 339.31 100.259 340.447 100.259C341.454 100.259 342.285 100.511 342.941 101.003C343.598 101.506 343.926 102.217 343.926 103.169V110.114C343.926 110.497 344.013 110.683 344.188 110.683C344.418 110.683 344.943 110.355 345.774 109.688H345.785ZM342.734 109.425V105.947C341.202 105.892 339.933 106.155 338.927 106.756C337.921 107.347 337.418 108.113 337.418 109.031C337.418 109.545 337.625 109.983 338.052 110.344C338.468 110.705 338.993 110.88 339.627 110.88C340.644 110.88 341.683 110.399 342.734 109.436V109.425Z" fill="black"/>
<path d="M356.078 100.467L347.732 117.333H346.518L350.423 109.458L345.72 100.467H346.967L351.014 108.255L354.875 100.467H356.089H356.078Z" fill="black"/>
<path d="M366.273 100.467V101.44H363.735C364.763 102.381 365.277 103.366 365.277 104.405C365.277 105.334 365.08 106.067 364.676 106.614C364.271 107.161 363.801 107.555 363.243 107.795C362.685 108.047 361.952 108.288 361.033 108.528C360.115 108.769 359.535 108.988 359.294 109.206C359.064 109.414 358.944 109.655 358.944 109.939C358.944 110.267 359.097 110.519 359.404 110.716C359.71 110.913 360.65 111.055 362.226 111.143C363.812 111.23 364.873 111.536 365.419 112.05C365.966 112.564 366.24 113.254 366.24 114.107C366.24 115.113 365.802 115.912 364.916 116.491C364.03 117.071 362.805 117.355 361.241 117.355C359.677 117.355 358.474 117.082 357.632 116.535C356.789 115.988 356.363 115.266 356.363 114.369C356.363 112.914 357.446 112.018 359.611 111.668V111.624C358.408 111.339 357.807 110.814 357.807 110.038C357.807 109.261 358.55 108.649 360.038 108.222V108.178C359.064 107.883 358.321 107.402 357.818 106.724C357.314 106.045 357.063 105.302 357.063 104.47C357.063 103.3 357.467 102.337 358.288 101.605C359.108 100.861 360.279 100.5 361.799 100.5H366.273V100.467ZM361.329 116.338C362.488 116.338 363.407 116.141 364.085 115.747C364.763 115.354 365.113 114.829 365.113 114.183C365.113 112.871 363.932 112.214 361.558 112.214C358.857 112.214 357.511 112.904 357.511 114.271C357.511 115.638 358.78 116.327 361.329 116.327V116.338ZM361.154 107.402C361.974 107.402 362.674 107.106 363.254 106.527C363.844 105.936 364.129 105.236 364.129 104.427C364.129 103.617 363.833 102.917 363.254 102.337C362.674 101.758 361.963 101.473 361.121 101.473C360.279 101.473 359.6 101.758 359.032 102.326C358.463 102.895 358.178 103.584 358.178 104.383C358.178 105.181 358.463 105.936 359.043 106.527C359.622 107.117 360.311 107.413 361.143 107.413L361.154 107.402Z" fill="black"/>
<path d="M375.778 101.572L375.088 102.687C374.159 101.834 373.415 101.419 372.846 101.419C371.73 101.419 370.538 102.49 369.269 104.623V111.635H368.077V100.478H369.269V103.409H369.313C370.648 101.309 371.949 100.259 373.218 100.259C373.951 100.259 374.804 100.697 375.778 101.583V101.572Z" fill="black"/>
<path d="M381.52 100.248C383.139 100.248 384.484 100.806 385.567 101.911C386.65 103.016 387.186 104.405 387.186 106.056C387.186 107.708 386.65 109.086 385.567 110.191C384.484 111.296 383.139 111.843 381.52 111.843C379.901 111.843 378.556 111.296 377.462 110.191C376.379 109.086 375.832 107.708 375.832 106.056C375.832 104.405 376.379 103.016 377.462 101.911C378.545 100.806 379.901 100.248 381.52 100.248ZM381.52 110.683C382.778 110.683 383.817 110.246 384.659 109.371C385.501 108.496 385.917 107.391 385.917 106.067C385.917 104.744 385.49 103.65 384.648 102.753C383.806 101.856 382.756 101.419 381.509 101.419C380.262 101.419 379.19 101.856 378.348 102.742C377.506 103.628 377.079 104.733 377.079 106.067C377.079 107.402 377.506 108.496 378.348 109.371C379.19 110.246 380.251 110.683 381.509 110.683H381.52Z" fill="black"/>
<path d="M397.654 111.624V109.775H397.61C397.096 110.519 396.56 111.044 396.013 111.361C395.466 111.678 394.777 111.831 393.935 111.831C392.743 111.831 391.747 111.449 390.96 110.672C390.172 109.895 389.778 108.802 389.778 107.369V100.456H390.971V107.347C390.971 108.386 391.255 109.195 391.824 109.786C392.393 110.377 393.125 110.672 394.033 110.672C394.81 110.672 395.466 110.497 396.013 110.136C396.56 109.775 397.107 109.163 397.654 108.287V100.456H398.846V111.613H397.654V111.624Z" fill="black"/>
<path d="M403.144 100.467V102.403H403.188C404.118 100.959 405.343 100.248 406.863 100.248C408.121 100.248 409.127 100.653 409.882 101.462C410.637 102.272 411.009 103.387 411.009 104.82V111.624H409.816V105.269C409.816 102.698 408.81 101.408 406.786 101.408C405.31 101.408 404.096 102.206 403.133 103.792V111.613H401.941V100.456H403.133L403.144 100.467Z" fill="black"/>
<path d="M423.752 94.6806V111.624H422.548V110.749C421.531 111.481 420.427 111.842 419.256 111.842C417.67 111.842 416.336 111.285 415.253 110.158C414.17 109.042 413.623 107.664 413.623 106.023C413.623 104.383 414.159 102.994 415.231 101.889C416.303 100.795 417.648 100.237 419.267 100.237C420.295 100.237 421.389 100.532 422.559 101.134V94.6697H423.763L423.752 94.6806ZM422.548 109.655V102.447C421.477 101.758 420.394 101.408 419.3 101.408C418.02 101.408 416.959 101.834 416.128 102.687C415.297 103.54 414.881 104.634 414.881 105.958C414.881 107.281 415.329 108.43 416.215 109.327C417.101 110.224 418.217 110.672 419.551 110.672C420.591 110.672 421.586 110.333 422.559 109.655H422.548Z" fill="black"/>
<path d="M187.541 0V112.329" stroke="black"/>
<path d="M139.504 42.3779C139.504 52.244 133.007 59.3428 117.486 59.3428C116.436 59.3428 115.386 59.321 114.347 59.2772C104.863 58.1068 94.9205 54.1691 88.1827 51.0189V29.646C96.9659 27.7537 106.438 26.0036 115.44 26.0036C133.729 26.0036 139.504 32.9821 139.504 42.3669V42.3779ZM70.1349 75.7718C69.413 80.1033 55.3357 86.7208 40.4161 86.7208C25.4966 86.7208 18.3978 79.622 18.3978 69.7559C18.3978 59.8897 24.1731 53.3925 42.4616 53.3925C51.6058 53.3925 60.8922 54.7598 70.1349 58.7303V75.7718ZM157.913 42.2466C157.913 23.3566 145.279 9.2793 117.245 9.2793C106.099 9.2793 96.605 11.4997 88.1608 15.0218V9.74963H70.2005L70.1458 17.4282V35.6947L70.2114 42.2138V42.2685C61.6688 38.6589 51.9777 36.6792 40.6677 36.6792C12.6335 36.6792 0 50.7564 0 69.6465C0 88.5365 13.8366 103.456 38.141 103.456C54.3512 103.456 65.6174 97.1338 70.1458 93.1633V102.143H88.1608V101.651H88.1936V67.7104C92.6017 69.8652 98.3988 72.3373 104.568 74.0108C106.23 74.4811 108.002 74.8858 109.884 75.214C110.026 75.2358 110.168 75.2686 110.31 75.2905C110.682 75.3561 111.065 75.4108 111.448 75.4655C112.159 75.5749 112.881 75.6624 113.592 75.739C113.876 75.7718 114.182 75.7937 114.467 75.8155C114.751 75.8374 115.047 75.8593 115.331 75.8812C116.764 75.9906 118.24 76.0562 119.783 76.0562C144.087 76.0562 157.924 61.9789 157.924 42.2466" fill="url(#paint0_linear_420_2)"/>
<path d="M88.2152 9.74951H70.2002V102.143H88.2152V9.74951Z" fill="url(#paint1_linear_420_2)"/>
<path d="M88.2264 51.03C84.945 49.2142 73.4053 43.4936 70.2114 42.2686V58.7194C73.4053 59.9335 76.107 61.2242 79.3884 63.04C79.3884 63.04 83.2058 65.1619 88.2264 67.7215" fill="url(#paint2_linear_420_2)"/>
<defs>
<linearGradient id="paint0_linear_420_2" x1="78.9619" y1="9.2793" x2="78.9619" y2="103.456" gradientUnits="userSpaceOnUse">
<stop stop-color="#104E92"/>
<stop offset="1" stop-color="#1C80B8"/>
</linearGradient>
<linearGradient id="paint1_linear_420_2" x1="79.2077" y1="9.74951" x2="79.2077" y2="102.143" gradientUnits="userSpaceOnUse">
<stop stop-color="#052A51"/>
<stop offset="1" stop-color="#105093"/>
</linearGradient>
<linearGradient id="paint2_linear_420_2" x1="79.2189" y1="42.2686" x2="79.2189" y2="67.7215" gradientUnits="userSpaceOnUse">
<stop stop-color="#104E92"/>
<stop offset="1" stop-color="#1C80B8"/>
</linearGradient>
</defs>
</svg>
